<svg width="176" height="215" viewBox="0 0 176 215" fill="none" xmlns="http://www.w3.org/2000/svg">
<path d="M13.5625 203.746C13.5625 200.426 14.3958 197.822 16.0625 195.934C17.7292 194.046 20.2878 193.102 23.7383 193.102C25.7565 193.102 27.3255 193.368 28.4453 193.902C29.5651 194.436 30.4635 195.217 31.1406 196.246C31.5443 196.858 31.4792 197.34 30.9453 197.691L28.875 199.059C28.2891 199.449 27.7747 199.299 27.332 198.609C27.1107 198.271 26.6875 197.906 26.0625 197.516C25.4375 197.125 24.6628 196.93 23.7383 196.93C22.2669 196.93 21.1667 197.451 20.4375 198.492C19.7083 199.521 19.3438 201.272 19.3438 203.746C19.3438 206.22 19.7083 207.978 20.4375 209.02C21.1667 210.048 22.2669 210.562 23.7383 210.562C24.793 210.562 25.6458 210.341 26.2969 209.898C26.9479 209.456 27.5599 208.883 28.1328 208.18C28.6276 207.581 29.1484 207.496 29.6953 207.926L31.5117 209.352C32.0586 209.781 32.0911 210.354 31.6094 211.07C31.1016 211.826 30.2357 212.568 29.0117 213.297C27.8008 214.026 26.043 214.391 23.7383 214.391C20.2878 214.391 17.7292 213.447 16.0625 211.559C14.3958 209.671 13.5625 207.066 13.5625 203.746ZM34.7734 203.746C34.7734 200.426 35.6263 197.822 37.332 195.934C39.0508 194.046 41.6029 193.102 44.9883 193.102C48.3737 193.102 50.9193 194.046 52.625 195.934C54.3438 197.822 55.2031 200.426 55.2031 203.746C55.2031 207.066 54.3438 209.671 52.625 211.559C50.9193 213.447 48.3737 214.391 44.9883 214.391C41.6029 214.391 39.0508 213.447 37.332 211.559C35.6263 209.671 34.7734 207.066 34.7734 203.746ZM40.5547 203.746C40.5547 206.22 40.9323 207.978 41.6875 209.02C42.4557 210.048 43.556 210.562 44.9883 210.562C46.4206 210.562 47.5143 210.048 48.2695 209.02C49.0378 207.978 49.4219 206.22 49.4219 203.746C49.4219 201.272 49.0378 199.521 48.2695 198.492C47.5143 197.451 46.4206 196.93 44.9883 196.93C43.556 196.93 42.4557 197.451 41.6875 198.492C40.9323 199.521 40.5547 201.272 40.5547 203.746ZM58.7383 197.398C57.9701 197.398 57.5859 197.073 57.5859 196.422V194.469C57.5859 193.818 57.9701 193.492 58.7383 193.492H59.832V190.758C59.832 188.362 60.5156 186.767 61.8828 185.973C63.25 185.178 64.8776 184.781 66.7656 184.781C67.6641 184.781 68.4323 184.833 69.0703 184.938C69.7214 185.042 70.2943 185.172 70.7891 185.328C71.2578 185.484 71.4271 185.81 71.2969 186.305L70.7109 188.512C70.5938 188.941 70.2943 189.072 69.8125 188.902C69.526 188.798 69.1224 188.727 68.6016 188.688C68.0938 188.635 67.6901 188.609 67.3906 188.609C66.4401 188.609 65.8542 188.941 65.6328 189.605C65.4115 190.27 65.3008 191.305 65.3008 192.711V193.492H67.8789C68.6471 193.492 69.0312 193.818 69.0312 194.469V196.422C69.0312 197.073 68.6471 197.398 67.8789 197.398H65.3008V212.828C65.3008 213.609 64.9102 214 64.1289 214H61.0039C60.2227 214 59.832 213.609 59.832 212.828V197.398H58.7383ZM73.9141 214C73.1328 214 72.7422 213.609 72.7422 212.828V194.664C72.7422 193.883 73.1328 193.492 73.9141 193.492H77C77.7812 193.492 78.1719 193.883 78.1719 194.664V196.266H78.25C78.5885 195.432 79.1549 194.697 79.9492 194.059C80.7435 193.421 81.681 193.102 82.7617 193.102C83.5039 193.102 84.1159 193.193 84.5977 193.375C85.0534 193.544 85.2292 193.857 85.125 194.312L84.5781 196.637C84.4609 197.158 84.1094 197.314 83.5234 197.105C83.1849 196.988 82.8594 196.93 82.5469 196.93C81.2969 196.93 80.2617 197.678 79.4414 199.176C78.6211 200.673 78.2109 202.854 78.2109 205.719V212.828C78.2109 213.609 77.8203 214 77.0391 214H73.9141ZM89.2656 214C88.4844 214 88.0938 213.609 88.0938 212.828V194.664C88.0938 193.883 88.4844 193.492 89.2656 193.492H92.3906C93.1719 193.492 93.5625 193.883 93.5625 194.664V212.828C93.5625 213.609 93.1719 214 92.3906 214H89.2656ZM89.2656 190.484C88.4844 190.484 88.0938 190.094 88.0938 189.312V186.812C88.0938 186.031 88.4844 185.641 89.2656 185.641H92.3906C93.1719 185.641 93.5625 186.031 93.5625 186.812V189.312C93.5625 190.094 93.1719 190.484 92.3906 190.484H89.2656ZM100.047 214C99.2656 214 98.875 213.609 98.875 212.828V194.664C98.875 193.883 99.2656 193.492 100.047 193.492H103.133C103.914 193.492 104.305 193.883 104.305 194.664V195.797H104.383C104.982 194.768 105.743 194.065 106.668 193.688C107.592 193.297 108.706 193.102 110.008 193.102C112.039 193.102 113.719 193.74 115.047 195.016C116.375 196.292 117.039 198.622 117.039 202.008V212.828C117.039 213.609 116.648 214 115.867 214H112.742C111.961 214 111.57 213.609 111.57 212.828V203.414C111.57 200.576 111.375 198.785 110.984 198.043C110.594 197.301 109.754 196.93 108.465 196.93C107.098 196.93 106.069 197.464 105.379 198.531C104.689 199.586 104.344 201.786 104.344 205.133V212.828C104.344 213.609 103.953 214 103.172 214H100.047ZM123.484 214C122.703 214 122.312 213.609 122.312 212.828V186.344C122.312 185.562 122.703 185.172 123.484 185.172H126.609C127.391 185.172 127.781 185.562 127.781 186.344V194.234C127.781 194.755 127.755 195.276 127.703 195.797H127.82C128.419 194.768 129.181 194.065 130.105 193.688C131.03 193.297 132.143 193.102 133.445 193.102C135.477 193.102 137.156 193.74 138.484 195.016C139.812 196.292 140.477 198.622 140.477 202.008V212.828C140.477 213.609 140.086 214 139.305 214H136.18C135.398 214 135.008 213.609 135.008 212.828V203.414C135.008 200.576 134.812 198.785 134.422 198.043C134.031 197.301 133.191 196.93 131.902 196.93C130.535 196.93 129.507 197.464 128.816 198.531C128.126 199.586 127.781 201.786 127.781 205.133V212.828C127.781 213.609 127.391 214 126.609 214H123.484ZM144.656 203.746C144.656 200.426 145.509 197.822 147.215 195.934C148.934 194.046 151.486 193.102 154.871 193.102C158.257 193.102 160.802 194.046 162.508 195.934C164.227 197.822 165.086 200.426 165.086 203.746C165.086 207.066 164.227 209.671 162.508 211.559C160.802 213.447 158.257 214.391 154.871 214.391C151.486 214.391 148.934 213.447 147.215 211.559C145.509 209.671 144.656 207.066 144.656 203.746ZM150.438 203.746C150.438 206.22 150.815 207.978 151.57 209.02C152.339 210.048 153.439 210.562 154.871 210.562C156.303 210.562 157.397 210.048 158.152 209.02C158.921 207.978 159.305 206.22 159.305 203.746C159.305 201.272 158.921 199.521 158.152 198.492C157.397 197.451 156.303 196.93 154.871 196.93C153.439 196.93 152.339 197.451 151.57 198.492C150.815 199.521 150.438 201.272 150.438 203.746ZM171.141 214C170.229 214 169.773 213.512 169.773 212.535V209.918C169.773 208.941 170.229 208.453 171.141 208.453H174.109C175.021 208.453 175.477 208.941 175.477 209.918V212.535C175.477 213.512 175.021 214 174.109 214H171.141Z" fill="black"/>
<path d="M99.9779 18.9222L100.167 19.0086C102.784 20.1985 105.009 21.7785 107.104 23.737C107.238 23.8621 107.373 23.9871 107.507 24.1121C108.719 25.2365 108.719 25.2365 109.246 25.8508C109.372 25.9926 109.501 26.1327 109.632 26.2703C110.161 26.8275 110.657 27.3956 111.122 28.009C111.213 28.1265 111.304 28.2439 111.397 28.3597C114.495 32.2625 116.201 37.3106 116.941 42.1817C117.033 42.8136 117.11 43.4438 117.16 44.0798L117.172 44.2309C117.356 46.5544 117.161 48.8452 116.853 51.1477C116.774 51.7393 116.697 52.3292 116.653 52.925C117.347 52.7009 118.039 52.4761 118.716 52.2033C121.151 51.23 123.892 50.6896 126.513 50.6048L126.773 50.5956C127.41 50.5847 128.066 50.6065 128.688 50.75C129.016 50.9413 129.287 51.1469 129.485 51.475C130.011 52.6523 129.99 54.0729 130.031 55.3408C130.033 55.4314 130.037 55.5221 130.04 55.6152C130.072 56.6213 130.088 57.6274 130.101 58.6344C130.106 58.9012 130.109 59.168 130.113 59.4349C130.12 59.8821 130.126 60.3294 130.132 60.7758C130.14 61.2877 130.147 61.7987 130.154 62.3097C130.162 62.809 130.169 63.3083 130.176 63.8084C130.179 64.0173 130.182 64.2263 130.185 64.4352C130.204 65.7224 130.215 67.0079 130.21 68.2952L130.379 68.3598C130.597 68.4504 130.774 68.5654 130.969 68.6979L131.197 68.854L131.438 69.0202L131.686 69.1897C131.919 69.3499 132.152 69.511 132.385 69.6722L132.547 69.7846C133.856 70.6925 135.087 71.7003 136.265 72.7719C136.375 72.8717 136.485 72.9707 136.597 73.0689C137.138 73.5455 137.648 74.054 138.157 74.5651C138.307 74.7161 138.458 74.8663 138.609 75.0173C138.707 75.1147 138.805 75.212 138.902 75.3094L139.036 75.4436C139.347 75.7558 139.638 76.0814 139.925 76.4153C139.999 76.5001 140.074 76.584 140.147 76.6687C142.384 79.2255 144.312 81.9904 145.942 84.9702L146.046 85.1573C146.88 86.6786 147.559 88.2721 148.213 89.8773L148.276 90.0326C148.335 90.1777 148.393 90.3221 148.452 90.4672L148.554 90.719C148.625 90.9153 148.625 90.9153 148.625 91.0597C148.714 91.0597 148.803 91.0588 148.895 91.058C149.233 91.0546 149.571 91.0529 149.908 91.0521C150.053 91.0513 150.198 91.0504 150.343 91.0487C152.18 91.0336 154.136 91.1175 155.796 92.0037C156.806 92.5852 157.508 93.3026 158.094 94.3037C158.806 95.6438 158.629 97.5486 158.669 99.0313L158.674 99.1974C158.723 101.028 158.717 102.859 158.716 104.689V105.128C158.716 109.771 158.716 109.771 158.639 111.999L158.631 112.254C158.603 113.019 158.563 113.783 158.493 114.547C158.489 114.604 158.484 114.66 158.479 114.719C158.408 115.429 158.147 116.055 157.76 116.653C157.113 117.551 156.317 118.154 155.318 118.623C154.177 119.126 152.935 119.28 151.698 119.293L151.429 119.297C151.15 119.301 150.871 119.304 150.592 119.308L150.019 119.316C149.554 119.323 149.09 119.33 148.625 119.335L148.538 119.567C147.985 121.035 147.428 122.491 146.74 123.903L146.638 124.115C144.906 127.721 142.576 131.05 139.883 134.005C139.767 134.133 139.651 134.26 139.536 134.388C139.053 134.92 138.555 135.434 138.045 135.942C137.917 136.07 137.789 136.198 137.66 136.327C137.243 136.745 136.823 137.151 136.372 137.533C136.256 137.638 136.14 137.743 136.024 137.85C135.711 138.132 135.389 138.399 135.061 138.665C134.832 138.853 134.604 139.043 134.378 139.236C134.093 139.479 133.804 139.719 133.513 139.957C132.84 140.505 132.182 141.071 131.541 141.656C131.427 141.758 131.313 141.859 131.197 141.96C129.407 143.522 128.182 145.522 127.092 147.61L127.003 147.78C125.89 149.903 125.408 152.234 125.079 154.586C124.993 155.195 124.896 155.8 124.771 156.403L124.735 156.571C124.61 157.15 124.444 157.706 124.115 158.204C123.43 158.641 122.512 158.616 121.725 158.652C121.57 158.658 121.417 158.663 121.263 158.669L121.007 158.678C120.029 158.711 119.051 158.72 118.073 158.728C117.972 158.729 117.871 158.73 117.77 158.731C115.811 158.747 113.853 158.757 111.893 158.765L111.153 158.767L110.967 158.768C109.97 158.772 108.973 158.781 107.976 158.79C106.948 158.8 105.92 158.806 104.892 158.808C104.26 158.809 103.627 158.814 102.995 158.822C102.563 158.828 102.13 158.829 101.698 158.827C101.449 158.826 101.2 158.827 100.951 158.833C99.7379 158.856 99.7379 158.856 99.2528 158.703C98.887 158.471 98.6554 158.14 98.4557 157.762L98.3827 157.615L98.3004 157.457C97.8725 156.622 97.8633 155.673 97.8666 154.75V154.53C97.8666 154.297 97.8675 154.065 97.8683 153.833C97.8683 153.688 97.8683 153.544 97.8683 153.399C97.8683 152.867 97.87 152.334 97.8708 151.801L97.875 148.19H85.3327V154.062C85.227 157.328 85.227 157.328 84.8544 157.98C84.7528 158.122 84.7529 158.122 84.5573 158.303C83.6788 158.701 82.5971 158.643 81.6523 158.67L81.4979 158.675C80.2132 158.712 78.9285 158.713 77.6438 158.712C77.304 158.712 76.9641 158.712 76.6243 158.712C76.052 158.713 75.4789 158.712 74.9066 158.712C74.331 158.711 73.7553 158.711 73.1789 158.712C70.3485 158.714 67.5181 158.712 64.687 158.67L64.5384 158.668C63.4996 158.653 62.4616 158.632 61.4236 158.6C61.2793 158.596 61.1358 158.592 60.9923 158.588C59.7051 158.546 59.7051 158.546 59.4332 158.395C58.9356 157.859 58.7183 157.231 58.5496 156.529C58.4666 156.095 58.4296 155.671 58.4179 155.23C58.3189 151.821 57.0501 148.425 55.2821 145.536C54.7929 144.761 54.2475 144.027 53.65 143.333C53.6005 143.275 53.5518 143.217 53.5015 143.157C53.2338 142.846 52.9426 142.558 52.6296 142.294C52.4954 142.177 52.3729 142.056 52.2495 141.928C51.9835 141.656 51.6898 141.423 51.3936 141.185C51.1889 141.016 50.9942 140.84 50.7995 140.659C50.3455 140.241 49.8614 139.866 49.3722 139.49C48.8083 139.056 48.2603 138.617 47.7376 138.132C47.5823 137.988 47.4254 137.847 47.2651 137.709L46.9798 137.46L46.8338 137.333C46.2909 136.853 45.7791 136.343 45.268 135.83C45.117 135.679 44.9668 135.529 44.8157 135.378C44.7184 135.28 44.6202 135.183 44.5229 135.085L44.3895 134.952C44.0782 134.639 43.787 134.314 43.5 133.98C43.4245 133.893 43.3481 133.807 43.2726 133.721C42.7842 133.165 42.3143 132.599 41.8629 132.011C41.7546 131.871 41.6455 131.731 41.5365 131.591C37.3224 126.163 34.3922 119.767 32.9875 111.94C32.9246 111.481 32.8709 111.022 32.8197 110.562L32.8021 110.401C32.656 109.065 32.6099 107.733 32.5906 106.39C32.62 104.627 32.62 104.627 32.1903 102.95C32.0443 102.714 31.8908 102.484 31.7297 102.259L31.6097 102.08V101.935C31.0701 102.358 31.0701 102.358 30.5767 102.833C29.6184 103.816 28.2893 104.551 26.9802 104.937C25.8407 105.252 24.7104 105.276 23.5608 104.98C22.47 104.659 21.5394 104.002 20.7573 103.19C20.0743 102.401 19.6556 101.458 19.4483 100.439C19.2519 99.3669 19.3174 98.3256 19.6472 97.2842C19.9207 96.5626 20.3806 95.8426 20.9486 95.314C22.1217 94.3591 23.44 93.8136 24.9261 93.5502C25.4455 93.4671 25.9708 93.4193 26.4944 93.3664L26.867 93.3278C27.1674 93.2959 27.4678 93.2657 27.7673 93.2346C27.0818 91.8274 26.3752 90.6158 25.3028 89.4653L25.1652 89.316C23.8512 87.9406 21.969 86.8817 20.1548 86.3471C19.4743 86.1676 18.7921 86.0493 18.0889 86.0165C17.4386 85.9863 16.863 85.8873 16.2856 85.5768C15.9215 85.341 15.71 85.0641 15.5153 84.6798L15.4407 84.5363C15.2149 83.9993 15.2384 83.3666 15.2972 82.7952C15.3836 82.3672 15.5447 82.0232 15.8141 81.68C16.101 81.3804 16.4308 81.1941 16.8202 81.0548C18.3801 80.6067 20.1523 80.9927 21.6913 81.3628C24.1893 82.0022 26.5204 83.2768 28.3749 85.0734C28.4588 85.1548 28.5427 85.2353 28.6274 85.315C29.3642 86.0165 30.0061 86.7508 30.5952 87.5798C30.6279 87.6251 30.6606 87.6713 30.6942 87.7174C32.2155 89.8522 32.8759 92.2134 33.2367 94.7803L33.2585 94.933C33.2778 95.0706 33.2971 95.2083 33.3156 95.3467C33.3383 95.5498 33.3383 95.5498 33.4222 95.7L33.4608 95.5649C34.581 91.6152 35.8095 87.8106 37.8158 84.2107C37.9073 84.0463 37.997 83.8818 38.0877 83.7173C38.9805 82.092 40.0277 80.5505 41.1798 79.0971L41.33 78.9075C41.4727 78.7279 41.6162 78.55 41.7597 78.3722L41.9183 78.1758C42.238 77.7806 42.5694 77.3946 42.9118 77.0187C43.046 76.8701 43.1786 76.7208 43.3095 76.5689C43.9456 75.8405 44.6118 75.1466 45.2966 74.4635C45.4359 74.3251 45.5743 74.1858 45.7128 74.0473C46.1474 73.6127 46.5821 73.1864 47.0528 72.7903C47.1401 72.7131 47.2265 72.6368 47.3138 72.5596C47.8433 72.0947 48.3795 71.6491 48.9442 71.2262C49.1045 71.1062 49.2631 70.9854 49.4225 70.8637C51.3617 69.3944 53.3957 68.0761 55.5347 66.9173L55.7243 66.8149C60.6265 64.1625 60.6264 64.1625 62.4952 64.1625L62.4238 64.0568C61.8004 63.1329 61.2466 62.1847 60.728 61.1979C60.6097 60.9722 60.4897 60.7473 60.3697 60.5224C58.235 56.5147 56.8445 51.991 56.8252 47.4204L56.8236 47.1787C56.8227 46.9219 56.8219 46.6652 56.8219 46.4092V46.1432C56.8227 44.8132 56.858 43.5126 57.0577 42.1952L57.0963 41.9317C57.8112 37.215 59.4525 32.3338 62.4524 28.5636C62.9181 27.9838 63.4056 27.425 63.9099 26.8779C64.0492 26.7243 64.1868 26.5682 64.3228 26.4105C64.577 26.1193 64.8439 25.8432 65.1183 25.5697L65.2634 25.4245C65.3633 25.3246 65.464 25.2239 65.5638 25.1241C65.7166 24.9722 65.8684 24.8203 66.0195 24.6676L66.3148 24.3731L66.4499 24.238C66.7235 23.9653 67.0063 23.706 67.2991 23.4534C67.4561 23.3183 67.6079 23.1773 67.7607 23.0372C68.166 22.6713 68.5914 22.3365 69.0235 22.0042C69.1712 21.8901 69.3189 21.7752 69.4657 21.6602C70.6204 20.7615 71.7893 20.0466 73.0975 19.3862C73.2561 19.3056 73.4138 19.2242 73.5707 19.1403C76.3507 17.6819 79.6644 16.5894 82.7952 16.2403L83.0108 16.2151C88.789 15.585 94.7107 16.4963 99.9779 18.9222ZM24.8673 98.7452C24.6315 98.8844 24.6315 98.8844 24.5048 99.1077C24.4528 99.3309 24.4671 99.4517 24.5048 99.6875C24.645 99.8486 24.645 99.8486 24.8673 99.9048C25.2944 99.9568 25.641 99.878 26.0396 99.7219C26.4012 99.5339 26.7117 99.2772 26.9702 98.9625C27.0297 98.7695 27.0297 98.7695 27.0423 98.6C25.9364 98.5337 25.9364 98.5337 24.8673 98.7452ZM41.0347 120.712C41.127 121.032 41.127 121.032 41.325 121.292C41.3049 121.119 41.3049 121.119 41.2528 120.93C41.1471 120.8 41.1471 120.8 41.0347 120.712Z" fill="#FF939E"/>
<path d="M99.9778 18.9222L100.167 19.0086C102.784 20.1985 105.009 21.7785 107.104 23.737C107.238 23.8621 107.373 23.9871 107.507 24.1121C108.719 25.2365 108.719 25.2365 109.246 25.8508C109.372 25.9926 109.501 26.1327 109.632 26.2703C110.161 26.8275 110.657 27.3956 111.122 28.009C111.213 28.1265 111.304 28.2439 111.397 28.3597C114.495 32.2625 116.201 37.3106 116.941 42.1817C117.033 42.8136 117.11 43.4438 117.16 44.0798L117.172 44.2309C117.356 46.5544 117.161 48.8452 116.853 51.1477C116.774 51.7393 116.697 52.3292 116.653 52.925C117.347 52.7009 118.039 52.4761 118.716 52.2033C121.151 51.23 123.892 50.6896 126.513 50.6048L126.773 50.5956C127.41 50.5847 128.066 50.6065 128.688 50.75C129.016 50.9413 129.287 51.1469 129.485 51.475C130.011 52.6523 129.99 54.0729 130.031 55.3408C130.033 55.4314 130.037 55.5221 130.04 55.6152C130.072 56.6213 130.088 57.6274 130.101 58.6344C130.106 58.9012 130.109 59.168 130.113 59.4349C130.12 59.8821 130.126 60.3294 130.132 60.7758C130.14 61.2877 130.147 61.7987 130.154 62.3097C130.162 62.809 130.169 63.3083 130.176 63.8084C130.179 64.0173 130.182 64.2263 130.185 64.4352C130.204 65.7224 130.215 67.0079 130.21 68.2952L130.379 68.3598C130.597 68.4504 130.774 68.5654 130.969 68.6979L131.197 68.854L131.438 69.0202L131.686 69.1897C131.919 69.3499 132.152 69.511 132.385 69.6722L132.547 69.7846C133.856 70.6925 135.087 71.7003 136.265 72.7719C136.375 72.8717 136.485 72.9707 136.597 73.0689C137.138 73.5455 137.648 74.054 138.157 74.5651C138.307 74.7161 138.458 74.8663 138.609 75.0173C138.707 75.1147 138.805 75.212 138.902 75.3094L139.036 75.4436C139.347 75.7558 139.638 76.0814 139.925 76.4153C139.999 76.5001 140.074 76.584 140.147 76.6687C142.384 79.2255 144.312 81.9904 145.942 84.9702L146.046 85.1573C146.88 86.6786 147.559 88.2721 148.213 89.8773L148.276 90.0326C148.335 90.1777 148.393 90.3221 148.452 90.4672L148.554 90.719C148.625 90.9153 148.625 90.9153 148.625 91.0597C148.714 91.0597 148.803 91.0588 148.895 91.058C149.233 91.0546 149.571 91.0529 149.908 91.0521C150.053 91.0513 150.198 91.0504 150.343 91.0487C152.18 91.0336 154.136 91.1176 155.796 92.0037C156.806 92.5852 157.508 93.3026 158.094 94.3037C158.806 95.6438 158.629 97.5486 158.669 99.0313L158.674 99.1974C158.723 101.028 158.717 102.859 158.716 104.689V105.128C158.716 109.771 158.716 109.771 158.639 111.999L158.631 112.254C158.603 113.019 158.563 113.783 158.493 114.547C158.489 114.604 158.484 114.66 158.479 114.719C158.408 115.429 158.147 116.055 157.76 116.653C157.113 117.551 156.317 118.154 155.318 118.623C154.177 119.126 152.935 119.28 151.698 119.293L151.429 119.297C151.15 119.301 150.87 119.304 150.592 119.308L150.019 119.316C149.554 119.323 149.09 119.33 148.625 119.335L148.538 119.567C147.985 121.035 147.428 122.491 146.74 123.903L146.638 124.115C144.906 127.721 142.576 131.05 139.883 134.005C139.767 134.133 139.651 134.26 139.536 134.388C139.053 134.92 138.555 135.434 138.045 135.942C137.917 136.07 137.789 136.198 137.66 136.327C137.243 136.745 136.823 137.151 136.372 137.533C136.256 137.638 136.14 137.743 136.024 137.85C135.711 138.132 135.389 138.399 135.061 138.665C134.832 138.853 134.604 139.043 134.378 139.236C134.093 139.479 133.804 139.719 133.513 139.957C132.84 140.505 132.182 141.071 131.541 141.656C131.427 141.758 131.313 141.859 131.197 141.96C129.407 143.522 128.182 145.522 127.092 147.61L127.003 147.78C125.89 149.903 125.408 152.234 125.079 154.586C124.993 155.195 124.896 155.8 124.771 156.403L124.735 156.571C124.61 157.15 124.444 157.706 124.115 158.204C123.43 158.641 122.512 158.616 121.724 158.652C121.57 158.658 121.417 158.663 121.263 158.669L121.007 158.678C120.029 158.711 119.051 158.72 118.073 158.728C117.972 158.729 117.871 158.73 117.77 158.731C115.811 158.747 113.853 158.757 111.893 158.765L111.153 158.767L110.967 158.768C109.97 158.772 108.973 158.781 107.976 158.79C106.948 158.8 105.92 158.806 104.892 158.808C104.26 158.809 103.627 158.814 102.995 158.822C102.563 158.828 102.13 158.829 101.698 158.827C101.449 158.826 101.2 158.827 100.951 158.833C99.7379 158.856 99.7379 158.856 99.2528 158.703C98.887 158.471 98.6554 158.14 98.4557 157.762L98.3827 157.615L98.3004 157.457C97.8725 156.622 97.8633 155.673 97.8666 154.75V154.53C97.8666 154.297 97.8675 154.065 97.8683 153.833C97.8683 153.688 97.8683 153.544 97.8683 153.399C97.8683 152.867 97.87 152.334 97.8708 151.801L97.875 148.19H85.3327V154.062C85.227 157.328 85.227 157.328 84.8544 157.98C84.7528 158.122 84.7528 158.122 84.5573 158.303C83.6788 158.701 82.5971 158.643 81.6523 158.67L81.4979 158.675C80.2132 158.712 78.9285 158.713 77.6438 158.712C77.304 158.712 76.9641 158.712 76.6243 158.712C76.052 158.713 75.4789 158.712 74.9066 158.712C74.331 158.711 73.7553 158.711 73.1789 158.712C70.3485 158.714 67.5181 158.712 64.687 158.67L64.5384 158.668C63.4996 158.653 62.4616 158.632 61.4236 158.6C61.2793 158.596 61.1358 158.592 60.9923 158.588C59.7051 158.546 59.7051 158.546 59.4332 158.395C58.9356 157.859 58.7183 157.231 58.5496 156.529C58.4666 156.095 58.4296 155.671 58.4179 155.23C58.3189 151.821 57.0501 148.425 55.2821 145.536C54.7929 144.761 54.2475 144.027 53.65 143.333C53.6005 143.275 53.5518 143.217 53.5015 143.157C53.2338 142.846 52.9426 142.558 52.6296 142.294C52.4954 142.177 52.3729 142.056 52.2495 141.928C51.9835 141.656 51.6898 141.423 51.3936 141.185C51.1889 141.016 50.9942 140.84 50.7995 140.659C50.3455 140.241 49.8614 139.866 49.3722 139.49C48.8083 139.056 48.2603 138.617 47.7376 138.132C47.5823 137.988 47.4254 137.847 47.2651 137.709L46.9798 137.46L46.8338 137.333C46.2909 136.853 45.7791 136.343 45.268 135.83C45.117 135.679 44.9668 135.529 44.8157 135.378C44.7184 135.28 44.6202 135.183 44.5229 135.085L44.3895 134.952C44.0782 134.639 43.787 134.314 43.5 133.98C43.4245 133.893 43.3481 133.807 43.2726 133.721C42.7842 133.165 42.3143 132.599 41.8629 132.011C41.7546 131.871 41.6455 131.731 41.5365 131.591C37.3224 126.163 34.3922 119.767 32.9875 111.94C32.9246 111.481 32.8709 111.022 32.8197 110.562L32.8021 110.401C32.656 109.065 32.6099 107.733 32.5906 106.39C32.62 104.627 32.62 104.627 32.1903 102.95C32.0443 102.714 31.8908 102.484 31.7297 102.259L31.6097 102.08V101.935C31.0701 102.358 31.0701 102.358 30.5767 102.833C29.6184 103.816 28.2893 104.551 26.9802 104.937C25.8407 105.252 24.7104 105.276 23.5608 104.98C22.47 104.659 21.5394 104.002 20.7573 103.19C20.0743 102.401 19.6556 101.458 19.4483 100.439C19.2519 99.3669 19.3174 98.3256 19.6472 97.2842C19.9207 96.5626 20.3806 95.8426 20.9486 95.314C22.1217 94.3591 23.44 93.8136 24.9261 93.5502C25.4455 93.4671 25.9708 93.4193 26.4944 93.3664L26.867 93.3278C27.1674 93.2959 27.4678 93.2657 27.7673 93.2347C27.0818 91.8274 26.3752 90.6158 25.3028 89.4653L25.1652 89.316C23.8512 87.9406 21.969 86.8817 20.1548 86.3472C19.4743 86.1676 18.7921 86.0493 18.0889 86.0165C17.4386 85.9863 16.863 85.8873 16.2856 85.5768C15.9215 85.341 15.71 85.0641 15.5153 84.6798L15.4407 84.5363C15.2149 83.9993 15.2384 83.3666 15.2972 82.7952C15.3836 82.3672 15.5447 82.0232 15.8141 81.68C16.101 81.3804 16.4308 81.1941 16.8202 81.0548C18.3801 80.6067 20.1523 80.9927 21.6913 81.3628C24.1893 82.0022 26.5204 83.2768 28.3749 85.0734C28.4588 85.1548 28.5427 85.2353 28.6274 85.315C29.3642 86.0165 30.0061 86.7508 30.5952 87.5798C30.6279 87.6251 30.6606 87.6713 30.6942 87.7174C32.2155 89.8522 32.8759 92.2134 33.2367 94.7803L33.2585 94.933C33.2778 95.0706 33.2971 95.2083 33.3156 95.3467C33.3383 95.5498 33.3383 95.5498 33.4222 95.7L33.4608 95.5649C34.581 91.6152 35.8095 87.8106 37.8158 84.2108C37.9073 84.0463 37.997 83.8818 38.0877 83.7174C38.9805 82.092 40.0277 80.5505 41.1798 79.0972L41.33 78.9075C41.4727 78.7279 41.6162 78.55 41.7597 78.3722L41.9183 78.1758C42.238 77.7806 42.5694 77.3946 42.9118 77.0187C43.046 76.8701 43.1786 76.7208 43.3095 76.5689C43.9456 75.8405 44.6118 75.1466 45.2966 74.4635C45.4359 74.3251 45.5743 74.1858 45.7128 74.0473C46.1474 73.6127 46.5821 73.1864 47.0528 72.7903C47.1401 72.7131 47.2265 72.6368 47.3138 72.5596C47.8433 72.0947 48.3795 71.6491 48.9442 71.2262C49.1045 71.1062 49.2631 70.9854 49.4225 70.8637C51.3617 69.3944 53.3957 68.0761 55.5347 66.9173L55.7243 66.815C60.6264 64.1625 60.6264 64.1625 62.4952 64.1625L62.4238 64.0568C61.8004 63.1329 61.2466 62.1847 60.728 61.1979C60.6097 60.9722 60.4897 60.7473 60.3697 60.5224C58.235 56.5147 56.8445 51.9911 56.8252 47.4204L56.8236 47.1787C56.8227 46.9219 56.8219 46.6652 56.8219 46.4092V46.1432C56.8227 44.8132 56.858 43.5126 57.0577 42.1952L57.0963 41.9317C57.8112 37.215 59.4525 32.3338 62.4524 28.5636C62.9181 27.9838 63.4056 27.425 63.9099 26.8779C64.0492 26.7243 64.1868 26.5682 64.3228 26.4105C64.577 26.1193 64.8439 25.8432 65.1183 25.5697L65.2634 25.4245C65.3633 25.3246 65.464 25.2239 65.5638 25.1241C65.7166 24.9722 65.8684 24.8203 66.0195 24.6676L66.3148 24.3731L66.4499 24.238C66.7235 23.9653 67.0063 23.706 67.2991 23.4534C67.4561 23.3183 67.6079 23.1773 67.7607 23.0372C68.1659 22.6713 68.5914 22.3365 69.0235 22.0042C69.1712 21.8901 69.3189 21.7752 69.4657 21.6602C70.6204 20.7615 71.7893 20.0466 73.0975 19.3862C73.2561 19.3056 73.4138 19.2242 73.5707 19.1403C76.3507 17.6819 79.6644 16.5894 82.7952 16.2403L83.0108 16.2151C88.789 15.585 94.7107 16.4963 99.9778 18.9222ZM124.262 55.9391L123.996 56.013L123.712 56.0927L123.567 56.1329C123.374 56.1867 123.182 56.2412 122.99 56.2957C122.743 56.3645 122.496 56.4325 122.248 56.4963C118.78 57.4101 115.79 59.6967 113.245 62.1327L113.05 62.3189C112.711 62.6487 112.409 62.9995 112.112 63.3687C111.926 63.6003 111.734 63.8268 111.541 64.0534C111.293 64.3454 111.048 64.6399 110.808 64.937C110.55 65.2542 110.282 65.5588 110.007 65.86C109.872 66.0102 109.738 66.1621 109.607 66.3148C109.347 66.6127 109.073 66.8947 108.794 67.1741C108.744 67.2236 108.695 67.2731 108.643 67.3235C108.54 67.4275 108.436 67.5307 108.332 67.6348C108.175 67.7917 108.017 67.9486 107.861 68.1064L107.556 68.411C107.51 68.4571 107.464 68.5033 107.417 68.5511C106.937 69.0277 106.426 69.4666 105.9 69.8903L105.759 70.0036C105.423 70.2696 105.07 70.5121 104.702 70.7311C104.556 70.8251 104.444 70.9216 104.328 71.05C104.876 71.6533 105.593 72.0309 106.307 72.4052C106.474 72.4941 106.642 72.5831 106.808 72.672L107.059 72.8054C110.017 74.3947 110.017 74.3947 110.683 75.3555C110.771 75.5108 110.853 75.671 110.925 75.8347L111.005 76.0058C111.137 76.396 111.105 76.8064 111.07 77.2125C110.981 77.6337 110.847 78.018 110.657 78.404C110.417 78.6709 110.147 78.8471 109.838 79.025L109.678 79.1165C109.328 79.2952 109.005 79.3741 108.612 79.3548C107.389 79.1374 106.184 78.2597 105.142 77.6287C100.247 74.6951 93.6979 73.6152 88.0657 73.5036C87.4976 73.4943 86.9304 73.4943 86.3623 73.496C86.1005 73.4969 85.8387 73.496 85.5769 73.4952C83.7778 73.491 81.9913 73.5816 80.2031 73.7914L80.0445 73.8099C79.1282 73.9156 78.2304 74.0767 77.3291 74.2731C77.0539 74.3301 76.7778 74.3754 76.5009 74.4216C73.1604 74.9897 69.7468 76.2609 66.8947 78.0919C66.4541 78.3738 65.9951 78.6214 65.5177 78.8345L65.3549 78.9084C64.6811 79.2012 64.0299 79.3246 63.2923 79.2423C63.0255 79.1542 62.8023 79.0334 62.5673 78.8798L62.3685 78.7573C62.0328 78.4124 61.776 77.9593 61.625 77.5028C61.5696 77.0757 61.5688 76.6654 61.6997 76.2534C61.9489 75.7197 62.2963 75.3035 62.7125 74.8923L62.8535 74.7488C63.3528 74.2739 63.9427 73.9131 64.52 73.5397C64.6442 73.4591 64.7675 73.3769 64.8909 73.2946C65.4438 72.9279 66.0312 72.6418 66.6278 72.3548L66.7999 72.2717C67.4258 71.9697 68.051 71.6718 68.6979 71.4175C68.8884 71.3336 69.0613 71.2329 69.2375 71.1222C69.2081 70.9577 69.1779 70.8494 69.0747 70.716C68.7533 70.4047 68.4135 70.1211 68.0644 69.8408C67.8706 69.6814 67.6835 69.5161 67.4972 69.3466L67.3184 69.1863C67.1901 69.0697 67.0642 68.9505 66.9408 68.8288L66.7411 68.6442L66.5641 68.4731C66.3526 68.3539 66.3526 68.3539 66.163 68.3749C65.6796 68.4563 65.2097 68.5981 64.7423 68.7433L64.5233 68.8112C60.4074 70.1009 56.263 72.1694 52.8528 74.8202L52.612 75.0048C51.2249 76.0746 49.9587 77.2729 48.7202 78.5081L48.601 78.6272C48.1655 79.0611 47.7401 79.4983 47.3423 79.9673C47.2668 80.0537 47.1913 80.1402 47.1149 80.2266C46.6274 80.7813 46.1583 81.351 45.7069 81.9359C45.5986 82.0735 45.4896 82.2111 45.378 82.3471C44.2334 83.7685 43.208 85.3217 42.3403 86.9278L42.2405 87.1091C41.283 88.8746 40.4246 90.698 39.7298 92.5827L39.6258 92.8562C39.3497 93.5972 39.1399 94.3582 38.9327 95.1202L38.8907 95.272C38.2773 97.5427 37.9828 99.8805 37.8452 102.225L37.8359 102.372C37.7705 103.408 37.7587 104.443 37.7587 105.482C37.7587 105.753 37.7579 106.025 37.7562 106.296C37.7529 107.856 37.8603 109.394 38.0675 110.938C38.0902 111.109 38.1112 111.278 38.133 111.449C38.2177 112.108 38.3411 112.76 38.5039 113.405C38.5685 113.675 38.6214 113.942 38.67 114.214C38.7984 114.875 39.0099 115.507 39.2222 116.145L39.2767 116.308C39.9681 118.389 40.7703 120.419 41.8092 122.353C41.9527 122.62 42.0861 122.891 42.2178 123.164C43.2902 125.315 44.7117 127.357 46.2548 129.195L46.442 129.42C47.2207 130.353 48.0564 131.226 48.9165 132.083C49.065 132.232 49.2144 132.381 49.3629 132.53L49.6524 132.819L49.7842 132.952C50.0947 133.26 50.4185 133.549 50.75 133.835C50.8364 133.911 50.9229 133.987 51.0084 134.063C51.4826 134.478 51.9617 134.882 52.4601 135.268C52.9619 135.658 53.452 136.063 53.9412 136.47C54.0712 136.579 54.2013 136.686 54.3322 136.793C55.5053 137.768 56.6549 138.829 57.6375 139.997L57.8095 140.194C60.7204 143.535 62.3517 147.512 63.2202 151.815C63.299 152.225 63.3695 152.636 63.4375 153.047L63.5827 153.917H80.1847C80.2426 152.087 80.2426 152.087 80.2745 150.256C80.2753 150.095 80.277 149.934 80.2787 149.772C80.2837 149.316 80.2879 148.86 80.2921 148.403C80.2946 148.119 80.2971 147.834 80.3005 147.549C80.3021 147.444 80.303 147.337 80.3038 147.231C80.3097 146.242 80.3332 145.227 80.8375 144.347C81.0741 144.048 81.3561 143.897 81.7026 143.75C83.5109 143.062 85.7128 143.31 87.6101 143.311C87.9457 143.311 88.2805 143.31 88.6153 143.31C89.4066 143.309 90.1971 143.309 90.9883 143.309C91.7989 143.31 92.6104 143.309 93.421 143.307C94.1225 143.307 94.824 143.306 95.5255 143.306C95.9417 143.307 96.3587 143.306 96.7749 143.305C99.7521 143.298 99.7521 143.298 100.847 143.425L101.054 143.448C101.462 143.506 101.801 143.623 102.153 143.84C102.431 144.076 102.624 144.33 102.76 144.669C102.862 145.253 102.889 145.827 102.892 146.42L102.895 146.666C102.897 146.933 102.899 147.2 102.901 147.468L102.905 148.026C102.909 148.464 102.912 148.902 102.915 149.34C102.919 149.84 102.922 150.339 102.927 150.839C102.935 151.865 102.942 152.891 102.95 153.917C104.964 153.921 106.977 153.923 108.991 153.925C109.926 153.926 110.86 153.927 111.796 153.928C112.611 153.93 113.426 153.931 114.241 153.931C114.673 153.932 115.105 153.932 115.536 153.932C115.942 153.934 116.349 153.934 116.756 153.934C116.905 153.934 117.053 153.934 117.202 153.935C118.424 153.96 118.424 153.96 119.625 153.772C119.834 153.649 119.834 153.649 119.988 153.483C120.029 153.268 120.05 153.082 120.06 152.866C120.212 150.882 120.968 148.784 121.728 146.958L121.787 146.811C122.121 145.995 122.476 145.199 122.888 144.42L122.967 144.267C123.925 142.45 125.141 140.798 126.513 139.272L126.636 139.135C127.429 138.258 127.429 138.258 127.884 137.878C128.041 137.744 128.193 137.605 128.344 137.465C128.716 137.119 129.1 136.787 129.496 136.468C129.725 136.282 129.95 136.092 130.174 135.901C130.464 135.655 130.757 135.411 131.053 135.171C131.398 134.891 131.728 134.596 132.055 134.294C132.21 134.153 132.367 134.013 132.526 133.876C133.319 133.184 134.069 132.453 134.812 131.707C134.982 131.537 135.153 131.367 135.323 131.196L135.653 130.866L135.806 130.715C136.13 130.389 136.436 130.051 136.735 129.703C136.803 129.624 136.873 129.546 136.942 129.467C137.508 128.818 138.034 128.145 138.547 127.455L138.667 127.295C139.59 126.053 140.404 124.746 141.158 123.395L141.254 123.221C142.082 121.729 142.76 120.144 143.333 118.537C144.42 115.601 144.42 115.601 145.095 114.949C145.485 114.633 145.869 114.465 146.36 114.363C147.32 114.217 148.289 114.23 149.259 114.22C149.597 114.217 149.935 114.214 150.273 114.208C150.452 114.207 150.631 114.204 150.81 114.203C151.846 114.204 151.846 114.204 152.825 113.914C153.088 113.758 153.291 113.615 153.447 113.347C153.655 112.833 153.785 112.346 153.845 111.795L153.863 111.639C153.927 111.03 153.928 110.423 153.928 109.811L153.929 109.458C153.929 109.141 153.93 108.823 153.93 108.505C153.93 108.306 153.93 108.107 153.93 107.908C153.931 107.212 153.931 106.516 153.931 105.82C153.931 105.174 153.932 104.528 153.932 103.881C153.933 103.324 153.934 102.767 153.934 102.211C153.934 101.878 153.934 101.547 153.935 101.216C153.936 100.903 153.936 100.59 153.935 100.278C153.935 100.165 153.935 100.051 153.936 99.9367C153.939 98.9734 153.928 97.9555 153.483 97.0778C153.306 96.8127 153.117 96.5861 152.845 96.4166C152.456 96.237 152.046 96.1993 151.623 96.1951L151.385 96.1917L151.129 96.19L150.581 96.1825C150.296 96.1791 150.011 96.1758 149.726 96.1733C148.782 96.1632 147.84 96.1498 146.898 96.0734L146.699 96.0583C146.204 96.0138 145.769 95.8821 145.313 95.6908C144.544 95.0673 144.142 93.8086 143.791 92.9091C143.742 92.7799 143.694 92.6515 143.646 92.5222C143.522 92.1925 143.395 91.8644 143.262 91.538L143.202 91.3877C142.482 89.6197 141.693 87.9222 140.722 86.275L140.595 86.0593C139.303 83.8734 137.762 81.8696 136.083 79.9673L135.984 79.8549C135.453 79.2574 134.889 78.6935 134.325 78.128L134.21 78.013C133.784 77.5851 133.352 77.1697 132.892 76.7778C132.776 76.6721 132.66 76.5664 132.543 76.4606C132.163 76.1174 131.769 75.7935 131.37 75.4722L131.123 75.2708C130.241 74.5525 129.324 73.8854 128.375 73.2544C128.231 73.1579 128.087 73.0605 127.943 72.9623C127.545 72.6921 127.156 72.453 126.727 72.2373C126.189 71.9562 125.68 71.6592 125.28 71.1952C124.979 70.5205 125.047 69.7569 125.083 69.0353C125.094 68.7533 125.095 68.4722 125.096 68.1903C125.099 67.7254 125.108 67.2605 125.12 66.7957C125.144 65.8894 125.124 64.9848 125.104 64.0786C125.097 63.6993 125.092 63.32 125.087 62.9407C125.067 61.4009 125.026 59.8612 124.985 58.3214L124.98 58.1309C124.96 57.3623 124.939 56.5936 124.917 55.825C124.677 55.825 124.494 55.8745 124.262 55.9391ZM24.8673 98.7452C24.6315 98.8845 24.6315 98.8845 24.5048 99.1077C24.4528 99.3309 24.4671 99.4517 24.5048 99.6875C24.645 99.8486 24.645 99.8486 24.8673 99.9048C25.2944 99.9568 25.641 99.878 26.0396 99.7219C26.4012 99.5339 26.7117 99.2772 26.9702 98.9625C27.0297 98.7695 27.0297 98.7695 27.0423 98.6C25.9364 98.5337 25.9364 98.5337 24.8673 98.7452Z" fill="#0B0B0B"/>
<path d="M85.5047 21.1517L85.6817 21.1526C89.5526 21.1702 93.3068 21.6015 96.8597 23.2L97.0669 23.2923C98.9382 24.1381 100.682 25.1946 102.297 26.4625L102.478 26.6026C104.105 27.889 105.622 29.2895 106.865 30.9577L106.957 31.0793C107.746 32.135 108.402 33.2753 109.03 34.4316C109.105 34.5692 109.182 34.706 109.258 34.8428C111.587 39.0543 112.028 43.3129 111.951 48.0422C111.922 49.4242 111.748 50.7819 111.433 52.1278L111.365 52.4299C110.615 55.6874 108.902 58.8542 106.865 61.4798L106.726 61.6594C105.104 63.7161 105.104 63.7161 104.126 64.5309C103.996 64.6433 103.871 64.7583 103.747 64.8766C101.972 66.5733 99.4886 68.5083 97.0745 69.1309C95.9215 69.3147 94.6939 69.1259 93.5468 68.9874C93.2917 68.9564 93.0358 68.927 92.7807 68.8977L92.2848 68.8389L92.0582 68.8129C91.637 68.7617 91.2191 68.6971 90.802 68.6182C90.63 68.5863 90.458 68.5561 90.2851 68.5285L90.1274 68.5016C90.0217 68.4848 89.9168 68.4672 89.811 68.4504C89.5551 68.4068 89.394 68.3682 89.175 68.2222C89.1389 67.8471 89.2136 67.514 89.3067 67.1531C89.4662 66.4919 89.5408 65.8282 89.6071 65.1527C89.7473 63.7429 89.7473 63.7429 89.9772 63.383C90.2549 63.0968 90.6317 62.9844 90.9967 62.8451C92.023 62.444 92.8671 61.7878 93.6702 61.0452L93.8774 60.8555C95.0127 59.7722 95.8703 58.4682 96.3763 56.9838C96.4107 56.8823 96.446 56.7816 96.482 56.6809C96.6113 56.3159 96.6918 55.9702 96.7288 55.585L96.7455 55.4046C96.8706 53.8581 96.9595 52.174 96.4972 50.6778L96.4502 50.5226C95.9391 48.9048 94.8802 47.4967 93.6702 46.3278C93.4125 46.0979 93.1465 45.8839 92.8722 45.675L92.7295 45.5592C91.8442 44.856 90.8188 44.4348 89.7548 44.0798V34.9452H89.9C90.0049 35.0492 90.0049 35.0492 90.1266 35.1944C90.2642 35.358 90.4018 35.5183 90.5495 35.6735C91.1595 36.3146 91.5673 37.0572 91.8056 37.9073C91.8551 38.1246 91.8904 38.3394 91.9206 38.5609C92.0179 39.1853 92.226 39.7852 92.586 40.3072C92.9359 40.72 93.3295 41.0145 93.8153 41.2528C94.1527 41.3653 94.4774 41.3586 94.8298 41.325C95.4231 41.1589 95.8997 40.7636 96.3386 40.3466C96.5433 40.1343 96.6809 39.9354 96.7875 39.6577C97.0652 38.352 96.8169 36.9305 96.4132 35.6802C95.8728 34.1086 94.9498 32.7425 93.8153 31.5375L93.6811 31.389C92.8537 30.5096 91.7528 29.8811 90.6158 29.4942C90.2826 29.3801 90.0703 29.2559 89.8278 29C89.7431 28.7617 89.7397 28.5217 89.7288 28.27C89.634 26.3157 89.634 26.3157 88.8763 24.5376C88.591 24.1658 88.2704 23.8948 87.8567 23.6758C87.4321 23.508 87.0126 23.5029 86.5653 23.5625C86.061 23.701 85.6112 23.9242 85.232 24.2867C84.8888 24.7138 84.7713 25.2802 84.6798 25.8097C84.658 26.0748 84.653 26.3383 84.6496 26.6035L84.6454 26.825C84.6412 27.0558 84.6379 27.2874 84.6345 27.5181C84.632 27.6759 84.6295 27.8336 84.6261 27.9914C84.6194 28.3757 84.6135 28.7609 84.6077 29.1452L84.4566 29.188C82.7742 29.6629 81.5407 30.3241 80.2577 31.5375L80.0848 31.6961C79.009 32.7198 78.1154 34.0054 77.6472 35.4193C77.408 36.2525 77.2746 37.0765 77.2704 37.9417L77.2687 38.1347C77.2687 38.2689 77.2679 38.404 77.2679 38.5383C77.267 38.7388 77.2645 38.9402 77.262 39.1416C77.2528 40.7938 77.5515 42.3496 78.3654 43.8021C78.7439 44.439 79.2423 44.9945 79.75 45.5298L79.9304 45.7245C81.1211 46.9681 82.6156 47.7468 84.1906 48.4013L84.4272 48.5003L84.6077 48.575C84.6093 49.5182 84.6102 50.4605 84.611 51.4037C84.6119 51.8417 84.6119 52.2797 84.6127 52.7177C84.6135 53.1407 84.6144 53.5644 84.6144 53.9882C84.6144 54.1493 84.6144 54.3096 84.6152 54.4698C84.6169 55.2041 84.6177 55.9383 84.5842 56.6725L84.5716 56.9587C84.5338 57.2121 84.465 57.3581 84.3173 57.5653C84.1344 57.5536 83.9926 57.5158 83.8357 57.4185C83.0981 56.8395 82.7163 55.872 82.3597 55.0278C82.2019 54.615 82.1213 54.1971 82.0383 53.7633C81.9074 53.1021 81.7739 52.5533 81.3401 52.023C81.0624 51.7418 80.814 51.5556 80.433 51.4431C79.7533 51.3324 78.9679 51.2845 78.3092 51.5161C78.0432 51.6495 77.8443 51.814 77.6656 52.0515C77.2746 52.6934 77.2058 53.3538 77.1873 54.0897C77.1705 55.7067 77.5397 57.171 78.3184 58.5891C79.2927 60.2908 80.7603 61.573 82.4327 62.5673C83.1812 62.9785 83.1812 62.9785 84.0052 63.1749C84.2452 63.2202 84.2452 63.2202 84.3761 63.3284C84.6404 63.8839 84.6496 64.5292 84.6891 65.1325L84.7075 65.4069C84.7662 66.3459 84.7671 67.2824 84.7528 68.2222C83.6519 68.4521 82.5375 68.5461 81.4198 68.6484C81.2193 68.6669 81.0187 68.6854 80.8182 68.7038C79.8045 68.7995 78.7917 68.891 77.7772 68.9732L77.5825 68.9883L77.3963 69.0034C77.2704 69.0151 77.1437 69.0294 77.0178 69.0462C76.7417 69.0814 76.5387 69.1074 76.2685 69.0277L76.0872 68.9237L75.8791 68.8079L75.6626 68.6803L75.4336 68.5503C75.2045 68.4177 74.9754 68.2851 74.7472 68.15L74.3553 67.9243C73.2619 67.2882 72.2315 66.5775 71.2673 65.7577L71.0567 65.5873C70.4441 65.0872 69.8836 64.5342 69.3239 63.9771L69.2056 63.8604C68.6988 63.357 68.2322 62.8384 67.7875 62.2778C67.7187 62.1948 67.649 62.1125 67.5794 62.0303C66.2746 60.4704 65.1778 58.6738 64.3077 56.8403L64.2237 56.6658C63.539 55.2309 62.9357 53.749 62.5673 52.2C62.5287 52.0641 62.4893 51.9281 62.4498 51.7922C62.2359 51.0001 62.1754 50.1912 62.1108 49.3755L62.0941 49.1666L62.0789 48.9803C62.063 48.7907 62.063 48.7907 62.0227 48.601C61.9732 48.257 61.9741 47.9163 61.9724 47.5697L61.9715 47.3356C61.9699 47.0856 61.9699 46.8355 61.969 46.5855V46.3287C61.969 44.8283 61.969 43.2953 62.3181 41.8268C62.3617 41.6372 62.3877 41.4458 62.4138 41.2528C63.002 37.4004 64.9563 33.7008 67.3528 30.6673C68.3287 29.4523 69.4112 28.2532 70.6153 27.2597L70.7286 27.164C71.9176 26.1621 73.1889 25.2903 74.5298 24.5048L74.6817 24.4142C77.3241 22.8476 80.2996 21.8969 83.3028 21.3153L83.5244 21.2717C84.1847 21.1559 84.8367 21.1475 85.5047 21.1517Z" fill="#D7B501"/>
<path d="M130.138 89.7548C130.664 89.952 131.132 90.286 131.515 90.6972C131.813 91.0731 132.042 91.465 132.167 91.9298C132.197 92.1665 132.198 92.3989 132.195 92.6372L132.193 92.8319C132.18 93.3337 132.118 93.775 131.95 94.25L131.893 94.4153C131.346 95.9987 130.576 97.4445 129.311 98.5765C128.406 99.3292 127.424 99.7597 126.295 100.05L126.017 100.121C124.565 100.433 122.934 100.416 121.51 99.9778L121.359 99.9317C120.053 99.5188 118.933 98.8165 117.99 97.8255C117.061 96.7439 116.387 95.3685 116.11 93.9697L116.072 93.7423L116.028 93.4814C115.792 91.9273 115.792 91.9273 115.996 91.3861C116.084 91.2401 116.179 91.1159 116.29 90.9875L116.449 90.7651C116.765 90.4001 117.204 90.1098 117.64 89.9042C118.104 89.7565 118.638 89.7548 119.117 89.8278C119.555 89.9671 119.928 90.1861 120.269 90.4932C120.791 91.0739 121.017 91.7654 121.18 92.513C121.322 93.139 121.539 93.7121 121.959 94.2047C122.296 94.5546 122.695 94.8768 123.17 95.0153C123.771 95.1428 124.514 95.1126 125.099 94.9339C125.635 94.7224 126.106 94.422 126.467 93.9689C126.825 93.431 126.982 92.9309 127.047 92.2923C127.149 91.5119 127.149 91.5119 127.351 91.1956C127.466 91.0555 127.466 91.0555 127.6 90.9153L127.759 90.7316C128.406 90.025 129.156 89.5744 130.138 89.7548Z" fill="#0B0B0B"/>
<path d="M89.6827 49.8077C89.8732 49.8354 90.02 49.8656 90.187 49.9646C90.8566 50.5344 91.2107 51.2854 91.5086 52.0934C91.7897 52.8889 91.814 53.7935 91.6848 54.6259C91.4918 55.5246 91.1067 56.4216 90.4983 57.1122C90.3271 57.2926 90.1803 57.4269 89.9722 57.5654C89.7775 57.5737 89.7775 57.5737 89.6097 57.5654C89.3445 56.8487 89.363 56.1481 89.3688 55.3962V54.9993C89.3697 54.7241 89.3705 54.448 89.3722 54.1719C89.3739 53.8204 89.3747 53.4679 89.3756 53.1163C89.3756 52.7782 89.3764 52.44 89.3781 52.1018V51.9088C89.3789 51.7276 89.3798 51.5455 89.3806 51.3643L89.3814 51.204C89.3839 50.8348 89.3957 50.4614 89.4653 50.0972C89.5786 49.9117 89.5786 49.9117 89.6827 49.8077ZM84.4625 34.6548C84.5338 34.7597 84.5338 34.7597 84.6077 34.9452C84.6211 35.1608 84.627 35.3706 84.6253 35.5863V35.7826C84.6261 35.9966 84.6253 36.2114 84.6245 36.4254V36.8726C84.6236 37.1856 84.6236 37.4986 84.6228 37.8116C84.6211 38.2119 84.6211 38.6113 84.6211 39.0116C84.6211 39.3195 84.6203 39.6283 84.6203 39.9363L84.6194 40.3785C84.6194 40.5857 84.6186 40.7922 84.6177 40.9994V41.1815C84.6161 41.5684 84.6094 41.9594 84.5347 42.3404C84.4214 42.5258 84.4214 42.5258 84.3173 42.6298C84.1562 42.6114 84.1562 42.6114 83.9548 42.5577C83.38 42.123 82.9429 41.4819 82.6274 40.8417C82.3496 40.1821 82.2607 39.5494 82.2649 38.837C82.2649 38.7632 82.2657 38.6902 82.2665 38.6138C82.2791 37.8125 82.4385 37.1689 82.8153 36.4581C83.2206 35.7809 83.803 35.0945 84.4625 34.6548Z" fill="#D7B501"/>
</svg>
